<svg width="824" height="41" viewBox="0 0 824 41" fill="none" xmlns="http://www.w3.org/2000/svg">
<path d="M1.42745 36.2714C0.369109 36.5876 -0.232506 37.7019 0.0837053 38.7602C0.399917 39.8186 1.51421 40.4202 2.57255 40.104L1.42745 36.2714ZM821.002 15.6246C822.071 15.8999 823.162 15.2558 823.437 14.1861C823.712 13.1164 823.068 12.0261 821.998 11.7508L821.002 15.6246ZM2.57255 40.104C12.6383 37.0965 31.2717 33.9948 56.5336 30.9379C81.7463 27.8869 113.426 24.8953 149.496 22.0801C221.635 16.4499 311.281 11.5294 401.772 8.24887C492.265 4.96835 583.58 3.32868 659.06 4.25784C734.643 5.18828 794.08 8.69615 821.002 15.6246L821.998 11.7508C794.52 4.6792 734.569 1.18707 659.109 0.258141C583.545 -0.672068 492.16 0.969513 401.628 4.2515C311.094 7.53353 221.39 12.4568 149.185 18.0922C113.084 20.9098 81.3428 23.9065 56.0531 26.9668C30.8127 30.0212 11.8617 33.1539 1.42745 36.2714L2.57255 40.104Z" fill="#EA1745"/>
</svg>
